<svg xmlns="http://www.w3.org/2000/svg" viewBox="0 0 32 32">
  <defs>
    <linearGradient id="icon-grad" x1="0%" y1="0%" x2="100%" y2="100%">
      <stop offset="0%" style="stop-color:#38bdf8" />
      <stop offset="100%" style="stop-color:#6366f1" />
    </linearGradient>
  </defs>
  <rect width="32" height="32" rx="10" fill="#0f172a"/>
  <path d="M8 12C8 10.8954 8.89543 10 10 10H22C23.1046 10 24 10.8954 24 12V22C24 23.1046 23.1046 24 22 24H10C8.89543 24 8 23.1046 8 22V12Z" fill="url(#icon-grad)"/>
  <path d="M13 10V8C13 7.44772 13.4477 7 14 7H18C18.5523 7 19 7.44772 19 8V10" stroke="url(#icon-grad)" stroke-width="2" stroke-linecap="round"/>
  <path d="M12 17L15 20L20 14" stroke="#0f172a" stroke-width="2.5" stroke-linecap="round" stroke-linejoin="round"/>
</svg>
